<svg width="48" height="48" viewBox="0 0 48 48" fill="none" xmlns="http://www.w3.org/2000/svg">
	<path d="M38.3665 15.5531C38.4542 15.0486 38.5 14.5296 38.5 14C38.5 9.02944 34.4706 5 29.5 5C26.0518 5 23.0565 6.93918 21.5452 9.78649C20.4029 8.97627 19.0071 8.5 17.5 8.5C13.634 8.5 10.5 11.634 10.5 15.5L10.5 15.5176C10.3349 15.5059 10.1681 15.5 10 15.5C6.13401 15.5 3 18.634 3 22.5C3 26.364 6.13082 29.4968 9.9941 29.5H37.5C41.366 29.5 44.5 26.366 44.5 22.5C44.5 18.9274 41.8236 15.9799 38.3665 15.5531Z" fill="#BBDEFB"/>
	<path d="M6.39705 31H8.39705V33.768L10.7943 32.384L11.7943 34.116L9.3971 35.5L11.7942 36.884L10.7942 38.6161L8.39705 37.232V40H6.39705V37.2321L4.00006 38.616L3.00006 36.884L5.3971 35.5L3 34.1161L4 32.384L6.39705 33.7679V31Z" fill="#BBDEFB"/>
	<path d="M19.1914 34H17.1914V36.7681L14.7942 35.384L13.7942 37.1161L16.1913 38.5L13.7942 39.884L14.7942 41.616L17.1914 40.232V43H19.1914V40.2322L21.5884 41.6161L22.5884 39.884L20.1913 38.5L22.5884 37.116L21.5884 35.384L19.1914 36.7679V34Z" fill="#BBDEFB"/>
	<path d="M40.7799 34H38.7798V36.768L36.3826 35.384L35.3826 37.1161L37.7798 38.5001L35.3828 39.884L36.3828 41.616L38.7798 40.2321V43H40.7799V40.2322L43.1768 41.6161L44.1768 39.884L41.7798 38.5001L44.177 37.116L43.177 35.384L40.7799 36.768V34Z" fill="#BBDEFB"/>
	<path d="M29.9856 31H27.9856V33.7679L25.5886 32.384L24.5886 34.1161L26.9856 35.5L24.5884 36.884L25.5884 38.616L27.9856 37.232V40H29.9856V37.232L32.3828 38.6161L33.3828 36.884L30.9856 35.5L33.3827 34.116L32.3827 32.384L29.9856 33.7679V31Z" fill="#BBDEFB"/>
</svg>
